<svg width="156" height="38" view-box="0 0 156 38" fill="none" xmlns="http://www.w3.org/2000/svg">
  <path d="M19 34C27.2843 34 34 27.2843 34 19C34 10.7157 27.2843 4 19 4C10.7157 4 4 10.7157 4 19C4 27.2843 10.7157 34 19 34Z" fill="#1C64F2" />
  <path d="M19 18.25C20.8612 18.25 23.5 21.1272 23.5 22.9434C23.5 23.7614 22.8717 24.25 21.8186 24.25C20.6739 24.25 19.918 23.6622 19 23.6622C18.074 23.6622 17.316 24.25 16.1814 24.25C15.1284 24.25 14.5 23.7614 14.5 22.9434C14.5 21.1272 17.1388 18.25 19 18.25ZM22.4519 17.9545C22.6956 17.1424 23.4466 16.6165 24.1291 16.7796C24.8116 16.9427 25.1671 17.7333 24.9234 18.5454C24.6796 19.3575 23.9287 19.8834 23.2462 19.7203C22.5637 19.5571 22.2081 18.7666 22.4519 17.9545ZM20.4663 17.4675C19.7411 17.2767 19.3783 16.297 19.6558 15.2794C19.9333 14.2617 20.7461 13.5916 21.4713 13.7824C22.1964 13.9732 22.5592 14.9529 22.2817 15.9705C22.0042 16.9882 21.1912 17.6585 20.4663 17.4675ZM13.8712 16.7798C14.5537 16.6167 15.3044 17.1426 15.5484 17.9547C15.7921 18.7669 15.4366 19.5574 14.7541 19.7205C14.0716 19.8837 13.3209 19.3577 13.0769 18.5456C12.8331 17.7335 13.1887 16.9429 13.8712 16.7798ZM17.5338 17.4675C16.8086 17.6583 15.9958 16.9882 15.7183 15.9705C15.4408 14.9529 15.8036 13.9734 16.5288 13.7824C17.2539 13.5914 18.0667 14.2617 18.3442 15.2794C18.6217 16.297 18.2589 17.2767 17.5338 17.4675Z" fill="white" />
  <path d="M53.56 26.716C52.288 26.716 51.136 26.416 50.104 25.816C49.072 25.216 48.262 24.388 47.674 23.332C47.086 22.276 46.792 21.094 46.792 19.786C46.792 18.478 47.086 17.296 47.674 16.24C48.262 15.184 49.066 14.362 50.086 13.774C51.118 13.174 52.276 12.874 53.56 12.874C54.496 12.874 55.354 13.036 56.134 13.36C56.926 13.672 57.592 14.098 58.132 14.638C58.672 15.178 59.062 15.784 59.302 16.456L56.836 17.644C56.596 16.972 56.188 16.432 55.612 16.024C55.036 15.604 54.352 15.394 53.56 15.394C52.78 15.394 52.084 15.58 51.472 15.952C50.872 16.312 50.404 16.828 50.068 17.5C49.744 18.16 49.582 18.922 49.582 19.786C49.582 20.65 49.744 21.418 50.068 22.09C50.404 22.75 50.872 23.266 51.472 23.638C52.084 24.01 52.78 24.196 53.56 24.196C54.352 24.196 55.036 23.992 55.612 23.584C56.188 23.164 56.596 22.618 56.836 21.946L59.302 23.134C59.062 23.806 58.672 24.412 58.132 24.952C57.592 25.492 56.926 25.924 56.134 26.248C55.354 26.56 54.496 26.716 53.56 26.716ZM65.2365 26.716C64.2765 26.716 63.3885 26.494 62.5725 26.05C61.7685 25.606 61.1325 24.994 60.6645 24.214C60.1965 23.434 59.9625 22.558 59.9625 21.586C59.9625 20.614 60.1965 19.738 60.6645 18.958C61.1325 18.178 61.7685 17.566 62.5725 17.122C63.3885 16.678 64.2765 16.456 65.2365 16.456C66.1965 16.456 67.0785 16.678 67.8825 17.122C68.6865 17.566 69.3225 18.178 69.7905 18.958C70.2585 19.738 70.4925 20.614 70.4925 21.586C70.4925 22.558 70.2585 23.434 69.7905 24.214C69.3225 24.994 68.6865 25.606 67.8825 26.05C67.0785 26.494 66.1965 26.716 65.2365 26.716ZM62.7525 21.586C62.7525 22.378 62.9805 23.026 63.4365 23.53C63.9045 24.034 64.5045 24.286 65.2365 24.286C65.9685 24.286 66.5625 24.034 67.0185 23.53C67.4745 23.026 67.7025 22.378 67.7025 21.586C67.7025 20.794 67.4685 20.146 67.0005 19.642C66.5445 19.138 65.9565 18.886 65.2365 18.886C64.5045 18.886 63.9045 19.138 63.4365 19.642C62.9805 20.146 62.7525 20.794 62.7525 21.586ZM71.7231 16.672H74.2431V17.86C74.4951 17.392 74.8551 17.044 75.3231 16.816C75.8031 16.576 76.3611 16.456 76.9971 16.456C77.7291 16.456 78.3771 16.612 78.9411 16.924C79.5051 17.236 79.9431 17.674 80.2551 18.238C80.5671 18.802 80.7231 19.45 80.7231 20.182V26.5H78.0231V20.758C78.0231 20.194 77.8551 19.744 77.5191 19.408C77.1951 19.06 76.7631 18.886 76.2231 18.886C75.6831 18.886 75.2451 19.06 74.9091 19.408C74.5851 19.744 74.4231 20.194 74.4231 20.758V26.5H71.7231V16.672ZM86.8725 26.608C85.6845 26.608 84.7605 26.29 84.1005 25.654C83.4525 25.006 83.1285 24.106 83.1285 22.954V19.012H81.4725V16.672H81.5625C82.0665 16.672 82.4505 16.546 82.7145 16.294C82.9905 16.042 83.1285 15.664 83.1285 15.16V14.44H85.8285V16.672H88.1325V19.012H85.8285V22.774C85.8285 23.278 85.9665 23.656 86.2425 23.908C86.5185 24.148 86.9385 24.268 87.5025 24.268C87.6705 24.268 87.8805 24.25 88.1325 24.214V26.518C87.7365 26.578 87.3165 26.608 86.8725 26.608ZM94.0887 26.716C93.0807 26.716 92.1867 26.488 91.4067 26.032C90.6267 25.576 90.0207 24.958 89.5887 24.178C89.1687 23.386 88.9587 22.516 88.9587 21.568C88.9587 20.608 89.1747 19.738 89.6067 18.958C90.0387 18.178 90.6327 17.566 91.3887 17.122C92.1447 16.678 92.9847 16.456 93.9087 16.456C94.9167 16.456 95.7867 16.666 96.5187 17.086C97.2507 17.506 97.8087 18.088 98.1927 18.832C98.5767 19.564 98.7687 20.386 98.7687 21.298C98.7687 21.742 98.7267 22.09 98.6427 22.342H91.7667C91.8507 22.966 92.0967 23.464 92.5047 23.836C92.9247 24.196 93.4647 24.376 94.1247 24.376C94.5927 24.376 95.0007 24.28 95.3487 24.088C95.6967 23.896 95.9667 23.632 96.1587 23.296L98.3187 24.322C98.0187 25.042 97.4847 25.624 96.7167 26.068C95.9607 26.5 95.0847 26.716 94.0887 26.716ZM95.9067 20.362C95.8467 19.834 95.6367 19.414 95.2767 19.102C94.9167 18.778 94.4607 18.616 93.9087 18.616C93.3687 18.616 92.9127 18.766 92.5407 19.066C92.1807 19.366 91.9407 19.798 91.8207 20.362H95.9067ZM103.815 26.698C102.783 26.698 101.877 26.464 101.097 25.996C100.329 25.516 99.7946 24.862 99.4946 24.034L101.439 23.026C101.703 23.53 102.045 23.926 102.465 24.214C102.885 24.49 103.353 24.628 103.869 24.628C104.265 24.628 104.571 24.55 104.787 24.394C105.003 24.238 105.111 24.022 105.111 23.746C105.111 23.53 105.027 23.344 104.859 23.188C104.691 23.032 104.439 22.924 104.103 22.864L102.429 22.54C101.613 22.348 100.971 21.988 100.503 21.46C100.047 20.92 99.8186 20.284 99.8186 19.552C99.8186 18.94 99.9746 18.4 100.287 17.932C100.611 17.464 101.061 17.104 101.637 16.852C102.225 16.588 102.897 16.456 103.653 16.456C104.565 16.456 105.369 16.672 106.065 17.104C106.761 17.524 107.271 18.118 107.595 18.886L105.633 19.894C105.477 19.51 105.213 19.204 104.841 18.976C104.469 18.736 104.055 18.616 103.599 18.616C103.227 18.616 102.939 18.688 102.735 18.832C102.531 18.976 102.429 19.174 102.429 19.426C102.429 19.63 102.513 19.81 102.681 19.966C102.861 20.11 103.143 20.23 103.527 20.326L105.093 20.65C105.933 20.878 106.581 21.25 107.037 21.766C107.493 22.27 107.721 22.882 107.721 23.602C107.721 24.214 107.559 24.754 107.235 25.222C106.911 25.69 106.455 26.056 105.867 26.32C105.279 26.572 104.595 26.698 103.815 26.698ZM113.636 26.608C112.448 26.608 111.524 26.29 110.864 25.654C110.216 25.006 109.892 24.106 109.892 22.954V19.012H108.236V16.672H108.326C108.83 16.672 109.214 16.546 109.478 16.294C109.754 16.042 109.892 15.664 109.892 15.16V14.44H112.592V16.672H114.896V19.012H112.592V22.774C112.592 23.278 112.73 23.656 113.006 23.908C113.282 24.148 113.702 24.268 114.266 24.268C114.434 24.268 114.644 24.25 114.896 24.214V26.518C114.5 26.578 114.08 26.608 113.636 26.608ZM119.191 13.09H124.339C125.767 13.09 126.913 13.462 127.777 14.206C128.653 14.95 129.091 16.006 129.091 17.374C129.091 18.274 128.887 19.048 128.479 19.696C128.071 20.332 127.507 20.818 126.787 21.154C126.079 21.478 125.263 21.64 124.339 21.64H121.981V26.5H119.191V13.09ZM124.357 19.21C124.945 19.21 125.413 19.042 125.761 18.706C126.121 18.37 126.301 17.926 126.301 17.374C126.301 16.822 126.121 16.378 125.761 16.042C125.413 15.694 124.945 15.52 124.357 15.52H121.981V19.21H124.357ZM133.85 26.716C132.674 26.716 131.756 26.35 131.096 25.618C130.448 24.874 130.124 23.878 130.124 22.63V16.672H132.824V22.414C132.824 22.978 132.986 23.434 133.31 23.782C133.646 24.118 134.084 24.286 134.624 24.286C135.164 24.286 135.596 24.118 135.92 23.782C136.256 23.434 136.424 22.978 136.424 22.414V16.672H139.124V26.5H136.604V25.312C136.352 25.78 135.986 26.134 135.506 26.374C135.038 26.602 134.486 26.716 133.85 26.716ZM145.562 30.46C144.422 30.46 143.42 30.184 142.556 29.632C141.692 29.092 141.104 28.36 140.792 27.436L143.294 26.554C143.426 27.01 143.696 27.37 144.104 27.634C144.512 27.898 144.998 28.03 145.562 28.03C146.234 28.03 146.762 27.844 147.146 27.472C147.53 27.112 147.722 26.614 147.722 25.978V25.042C147.074 25.69 146.198 26.014 145.094 26.014C144.194 26.014 143.378 25.81 142.646 25.402C141.926 24.982 141.362 24.406 140.954 23.674C140.546 22.942 140.342 22.12 140.342 21.208C140.342 20.308 140.54 19.498 140.936 18.778C141.344 18.046 141.902 17.476 142.61 17.068C143.33 16.66 144.14 16.456 145.04 16.456C146.252 16.456 147.206 16.87 147.902 17.698V16.672H150.422V25.978C150.422 26.842 150.212 27.61 149.792 28.282C149.384 28.966 148.808 29.5 148.064 29.884C147.332 30.268 146.498 30.46 145.562 30.46ZM143.132 21.244C143.132 21.928 143.348 22.486 143.78 22.918C144.224 23.35 144.788 23.566 145.472 23.566C146.144 23.566 146.684 23.356 147.092 22.936C147.512 22.504 147.722 21.94 147.722 21.244C147.722 20.548 147.512 19.984 147.092 19.552C146.684 19.108 146.144 18.886 145.472 18.886C144.788 18.886 144.224 19.108 143.78 19.552C143.348 19.984 143.132 20.548 143.132 21.244Z" fill="#1C2C49" />
</svg>