<svg width="30" height="30" viewBox="0 0 30 30" fill="none" xmlns="http://www.w3.org/2000/svg">
  <path d="M15 30C23.2843 30 30 23.2843 30 15C30 6.71573 23.2843 0 15 0C6.71573 0 0 6.71573 0 15C0 23.2843 6.71573 30 15 30Z" fill="#1C64F2" />
  <path d="M15 14.25C16.8611 14.25 19.5 17.1272 19.5 18.9434C19.5 19.7614 18.8716 20.25 17.8185 20.25C16.6739 20.25 15.918 19.6622 15 19.6622C14.0739 19.6622 13.316 20.25 12.1814 20.25C11.1283 20.25 10.5 19.7614 10.5 18.9434C10.5 17.1272 13.1388 14.25 15 14.25ZM18.4518 13.9545C18.6956 13.1423 19.4465 12.6164 20.129 12.7795C20.8115 12.9427 21.1671 13.7332 20.9233 14.5453C20.6796 15.3574 19.9286 15.8834 19.2461 15.7202C18.5636 15.5571 18.2081 14.7666 18.4518 13.9545ZM16.4662 13.4674C15.741 13.2767 15.3782 12.297 15.6557 11.2793C15.9332 10.2617 16.746 9.59161 17.4712 9.78235C18.1964 9.97315 18.5592 10.9528 18.2817 11.9705C18.0042 12.9881 17.1911 13.6585 16.4662 13.4674ZM9.87111 12.7798C10.5536 12.6167 11.3043 13.1426 11.5483 13.9547C11.7921 14.7668 11.4365 15.5573 10.754 15.7205C10.0715 15.8836 9.32079 15.3577 9.07683 14.5456C8.83305 13.7335 9.18861 12.9429 9.87111 12.7798ZM13.5337 13.4674C12.8085 13.6582 11.9957 12.9881 11.7182 11.9705C11.4407 10.9528 11.8035 9.97339 12.5287 9.78235C13.2539 9.59137 14.0667 10.2617 14.3442 11.2793C14.6217 12.297 14.2589 13.2767 13.5337 13.4674Z" fill="white" />
</svg>
